<svg xmlns="http://www.w3.org/2000/svg" width="260" height="64" viewBox="0 0 260 64" role="img" aria-label="WorldCup logo">
  <rect x="4" y="13" width="38" height="38" rx="8" fill="#106b4f"></rect>
  <g transform="translate(13 22)" fill="none" stroke="#ffffff" stroke-width="2" stroke-linecap="round" stroke-linejoin="round">
    <path d="M10 14.66v1.626a2 2 0 0 1-.976 1.696A5 5 0 0 0 7 21.978"></path>
    <path d="M14 14.66v1.626a2 2 0 0 0 .976 1.696A5 5 0 0 1 17 21.978"></path>
    <path d="M18 9h1.5a1 1 0 0 0 0-5H18"></path>
    <path d="M4 22h16"></path>
    <path d="M6 9a6 6 0 0 0 12 0V3a1 1 0 0 0-1-1H7a1 1 0 0 0-1 1z"></path>
    <path d="M6 9H4.5a1 1 0 0 1 0-5H6"></path>
  </g>
  <text x="58" y="40" font-family="Inter, system-ui, sans-serif" font-size="22" font-weight="800" fill="#0c1d1a">WorldCup</text>
</svg>